<svg id="Layer_1" data-name="Layer 1" xmlns="http://www.w3.org/2000/svg" xmlns:xlink="http://www.w3.org/1999/xlink" width="203" height="134" viewBox="0 0 203 134"><defs><style>.cls-1{fill:none;}.cls-2{fill:#666;}.cls-3{fill:#303030;}.cls-4{fill:#ffb533;}.cls-5{fill:#fff;}.cls-6{clip-path:url(#clip-path);}</style><clipPath id="clip-path"><rect class="cls-1" x="1.5" y="1.7823" width="179.7102" height="20.29"/></clipPath></defs><title>icon dat hang ko thanh cong</title><rect class="cls-2" x="21.7899" y="22.0723" width="179.7101" height="110.1449"/><path class="cls-3" d="M202.8613,133.5789H20.4287V20.7107H202.8613Zm-179.71-2.7227H200.1387V23.4333H23.1514Z"/><rect class="cls-4" x="1.5" y="1.7823" width="179.7102" height="20.29"/><path class="cls-3" d="M182.5713,23.4338H.1387V.4211H182.5713ZM2.8613,20.7112H179.8486V3.1438H2.8613Z"/><rect class="cls-5" x="1.5" y="22.0724" width="179.7102" height="89.8552"/><path class="cls-3" d="M182.5713,113.2888H.1387V20.7112H182.5713Zm-179.71-2.7226H179.8486V23.4338H2.8613Z"/><polygon class="cls-4" points="91.355 40.165 60.369 93.835 122.341 93.835 91.355 40.165"/><path class="cls-3" d="M124.6982,95.196H58.0117L91.355,37.4431ZM62.7266,92.4734h57.2568L91.355,42.8875Z"/><polygon class="cls-3" points="93.872 80.205 94.375 58.353 88.961 58.353 89.462 80.205 93.872 80.205"/><path class="cls-3" d="M94.02,83.0539a3.19,3.19,0,0,0-4.566-.1571,2.941,2.941,0,0,0-.925,2.1453,3.1245,3.1245,0,0,0,3.1489,3.1093,3.0654,3.0654,0,0,0,2.1056-.8069,3.01,3.01,0,0,0,.2365-4.2906Z"/><g class="cls-6"><rect class="cls-3" x="-21.4914" y="8.8691" width="57.9828" height="7.0006" transform="translate(-6.5498 8.9262) rotate(-45)"/><rect class="cls-3" x="-3.1032" y="8.8691" width="57.9828" height="7.0006" transform="translate(-1.164 21.9286) rotate(-45)"/><rect class="cls-3" x="15.2845" y="8.8691" width="57.9828" height="7.0006" transform="translate(4.2216 34.9307) rotate(-45)"/><rect class="cls-3" x="33.6727" y="8.8691" width="57.9828" height="7.0006" transform="translate(9.6074 47.9331) rotate(-45)"/><rect class="cls-3" x="52.0609" y="8.8691" width="57.9828" height="7.0006" transform="translate(14.9932 60.9355) rotate(-45)"/><rect class="cls-3" x="70.4486" y="8.8692" width="57.9831" height="7.0003" transform="translate(20.3789 73.9377) rotate(-45)"/><rect class="cls-3" x="88.8367" y="8.8692" width="57.9828" height="7.0003" transform="translate(25.7646 86.94) rotate(-45)"/><rect class="cls-3" x="107.2244" y="8.8694" width="57.9828" height="6.9999" transform="translate(31.1416 99.9317) rotate(-44.9943)"/><rect class="cls-3" x="125.6131" y="8.8694" width="57.9828" height="6.9999" transform="translate(36.5262 112.9331) rotate(-44.9943)"/><rect class="cls-3" x="144.0008" y="8.8694" width="57.9828" height="6.9999" transform="translate(41.9106 125.9339) rotate(-44.9943)"/></g></svg>