<svg id="Layer_1" data-name="Layer 1" xmlns="http://www.w3.org/2000/svg" width="41" height="27.5" viewBox="0 0 41 27.5"><defs><style>.cls-1{fill:#ccc;}.cls-2{fill:#303030;}.cls-3{fill:#fff;}</style></defs><title>icon Cash</title><g id="icon_card" data-name="icon card"><rect class="cls-1" x="4.56" y="4.76" width="35.94" height="22.03"/><path class="cls-2" d="M41,27.29H4.06V4.26H41Zm-35.94-1H40V5.26H5.06Z"/><rect class="cls-3" x="0.5" y="0.71" width="35.94" height="22.03"/><path class="cls-2" d="M36.94,23.24H0V.21H36.94ZM1,22.24H35.94V1.21H1Z"/><rect class="cls-2" x="0.0801" y="4.2602" width="36.3604" height="1"/></g><path class="cls-2" d="M28.34,13.73v3.33c0,.17,0,.23-.21.23H26.58c-.16,0-.22,0-.2-.2s0-.45,0-.68,0-.18-.17-.18H24.15a.24.24,0,0,0-.24.15c-.14.26-.29.51-.42.77a.23.23,0,0,1-.23.15H21.52c-.18,0-.16-.05-.09-.17l2-3.16c.63-1,1.26-2,1.88-3a4.519,4.519,0,0,0,.31-.5.4.4,0,0,1,.45-.23h2.08c.14,0,.21,0,.21.19V13.8Zm-1.72-2.19a.2407.2407,0,0,0-.06.08c-.57,1-1.13,2.08-1.69,3.13a.1238.1238,0,0,0,0,.15h1.47c.12,0,.13-.06.14-.16V13.52c0-.66.08-1.33.12-2h0Z"/><path class="cls-2" d="M10.5,14.72c.83-1.53,1.82-3,2.71-4.42a.21.21,0,0,1,.24-.1h1.79c.04,0,0,.12-.06.17l-1.83,2.94Q12.18,15.2,11,17.07a.32.32,0,0,1-.32.18H9.09c-.16,0-.22,0-.22-.19,0-.72-.09-1.44-.14-2.16-.08-1.13-.1-2.25-.23-3.37a1.18,1.18,0,0,0-1.18-1.12c-.06,0-.17,0-.16-.1s.09-.12.17-.11h2.94c.15,0,.16.07.16.19v4.27A.2488.2488,0,0,0,10.5,14.72Z"/><path class="cls-2" d="M20.84,10a4,4,0,0,1,2.29.74c.14.09.14.15,0,.27-.31.31-.61.64-.91,1-.1.11-.16.11-.28,0a2,2,0,0,0-1.32-.54,1.2911,1.2911,0,0,0-.66.21.49.49,0,0,0-.1571.675.4962.4962,0,0,0,.0671.085,3.6794,3.6794,0,0,0,.8.61,3.5707,3.5707,0,0,1,1.2,1.15A1.52,1.52,0,0,1,22,15.66a3,3,0,0,1-2.7,1.81,5.2192,5.2192,0,0,1-3.09-.69c-.12-.08-.17-.12-.06-.26.28-.36.55-.73.82-1.1.09-.13.17-.15.3-.06a3.2891,3.2891,0,0,0,1.19.54,2.9971,2.9971,0,0,0,.9,0,.88.88,0,0,0,.63-.39.46.46,0,0,0-.0608-.6477L19.9,14.84a9.7223,9.7223,0,0,0-.91-.62,7.2269,7.2269,0,0,1-.73-.62,1.7,1.7,0,0,1-.27-2,2.66,2.66,0,0,1,2.15-1.57A4.4373,4.4373,0,0,1,20.84,10Z"/><path class="cls-2" d="M14.42,17.24h-.73c-.24,0-.25,0-.19-.23.62-2,1.22-3.95,1.83-5.93.08-.25.17-.5.23-.76a.19.19,0,0,1,.22-.15h1.54c.22,0,.22.07.16.24-.29.93-.58,1.87-.86,2.8-.4,1.28-.79,2.55-1.17,3.82,0,.16-.11.22-.28.21S14.67,17.24,14.42,17.24Z"/></svg>